# xmcd
#
# Track frame offsets: 
#        150
#        14777
#        32790
#        47725
#        68245
#        89922
#        107825
#        126787
#        143770
#        160047
#        176712
#        197095
#        217765
#        233517
#
# Disc length: 3305 seconds
#
# Revision: 6
# Processed by: cddbd v1.5.2PL0 Copyright (c) Steve Scherf et al.
# Submitted via: ExactAudioCopy v0.95b4
#
DISCID=c50ce70e
DTITLE=Kenny Wayne Shepherd Band - Live On
DYEAR=1999
DGENRE=Blues
TTITLE0=In 2 Deep
TTITLE1=Was
TTITLE2=Them Changes
TTITLE3=Last Goodbye
TTITLE4=Shotgun Blues
TTITLE5=Never Mind
TTITLE6=You Should Know Better
TTITLE7=Every Time It Rains
TTITLE8=Oh Well
TTITLE9=Wild Love
TTITLE10=Losing Kind
TTITLE11=Live On
TTITLE12=Where Was I?
TTITLE13=Electric Lullaby
EXTD=YEAR: 1999 ID3G: 0
EXTT0=
EXTT1=
EXTT2=
EXTT3=
EXTT4=
EXTT5=
EXTT6=
EXTT7=
EXTT8=
EXTT9=
EXTT10=
EXTT11=
EXTT12=
EXTT13=
PLAYORDER=
